<svg width="227" height="27" viewBox="0 0 227 27" fill="none" xmlns="http://www.w3.org/2000/svg">
<path d="M0.234375 26L0.234375 0.792969L5.64844 0.792969L5.64844 26L0.234375 26ZM7.08352 0.792969L26.8765 0.792969L26.8765 5.66211L19.687 5.66211L19.687 26L14.2905 26L14.2905 5.66211L7.08352 5.66211L7.08352 0.792969ZM33.7256 21.1484L47.2256 21.1484L47.2256 26L28.3116 26L28.3116 0.792969L46.8565 0.792969L46.8565 5.66211L33.7256 5.66211L33.7256 10.707L43.9737 10.707L43.9737 15.5586L33.7256 15.5586L33.7256 21.1484ZM49.733 26L49.7154 0.792969L60.8775 0.792969C63.3736 0.792969 65.4478 1.60156 67.0826 3.20117C68.7173 4.80078 69.5259 6.75195 69.5259 9.07227C69.5259 10.0918 69.3677 11.0234 69.0513 11.9023C68.7349 12.7813 68.3658 13.502 67.9439 14.0293C67.522 14.5742 67.0826 15.0313 66.6431 15.418C66.1861 15.8047 65.817 16.0684 65.5005 16.209L65.0435 16.4551L70.44 26L64.6744 26L59.8228 17.1758L55.147 17.1758L55.147 26L49.733 26ZM64.1295 9.07227C64.1295 8.08789 63.813 7.2793 63.1627 6.62891C62.5123 5.99609 61.6861 5.66211 60.7017 5.66211L55.1295 5.66211L55.1295 12.3242L60.7017 12.3242C61.6861 12.3242 62.5123 12.0254 63.1627 11.3926C63.813 10.7598 64.1295 9.98633 64.1295 9.07227ZM72.7716 26L72.7716 0.792969L78.1856 0.792969L78.1856 26L72.7716 26ZM92.9449 21.6758C94.4742 21.6758 95.7926 21.1133 96.8824 19.9707C97.9723 18.8457 98.5172 17.4219 98.5172 15.7344L98.5172 0.792969L103.914 0.792969L103.914 15.7344C103.914 18.8105 102.859 21.377 100.785 23.4512C98.693 25.5254 96.0738 26.5625 92.9273 26.5625C89.7809 26.5625 87.1617 25.5254 85.0875 23.4512C82.9957 21.377 81.9586 18.8105 81.9586 15.7344L81.9586 0.792969L87.3551 0.792969L87.3551 15.7344C87.3551 17.4219 87.9 18.8281 88.9898 19.9707C90.0797 21.1133 91.398 21.6758 92.9449 21.6758ZM121.204 11.7793L129.923 0.792969L134.704 0.792969L134.704 26L129.308 26L129.308 9.19531L121.204 19.5137L113.118 9.26563L113.118 26L107.704 26L107.704 0.792969L112.573 0.792969L121.204 11.7793ZM139.743 25.1035C139.743 25.7012 139.426 26 138.829 26C138.231 26 137.932 25.7012 137.932 25.1035C137.932 24.5059 138.231 24.207 138.829 24.207C139.426 24.207 139.743 24.5059 139.743 25.1035ZM141.195 0.792969L159.195 0.792969V1.88281L150.74 1.88281L150.74 26H149.65L149.65 1.88281L141.195 1.88281V0.792969ZM163.336 24.9277L179.174 24.9277L179.174 26L162.264 26L162.264 0.792969L178.822 0.792969V1.88281L163.336 1.88281L163.336 12.3242L175.94 12.3242V13.3965L163.336 13.3965V24.9277ZM180.978 13.3965C180.978 9.82813 182.208 6.78711 184.687 4.25586C187.183 1.72461 190.136 0.458984 193.564 0.458984C194.847 0.458984 196.077 0.634766 197.255 1.00391C198.45 1.37305 199.435 1.83008 200.208 2.35742C200.981 2.88477 201.667 3.42969 202.265 3.95703C202.862 4.48438 203.302 4.92383 203.565 5.27539L204.005 5.85547L203.091 6.57617C203.003 6.43555 202.88 6.24219 202.704 6.01367C202.546 5.78516 202.159 5.38086 201.562 4.81836C200.964 4.23828 200.314 3.72852 199.646 3.28906C198.978 2.83203 198.081 2.42773 196.974 2.07617C195.884 1.70703 194.741 1.53125 193.564 1.53125C190.399 1.53125 187.692 2.67383 185.425 4.99414C183.175 7.29688 182.032 10.1094 182.032 13.4141C182.032 16.7188 183.175 19.5313 185.425 21.834C187.675 24.1367 190.399 25.2969 193.564 25.2969C194.741 25.2969 195.866 25.1211 196.956 24.7695C198.046 24.418 198.96 24.0137 199.663 23.5215C200.366 23.0293 200.999 22.5371 201.526 22.0449C202.071 21.5527 202.458 21.1133 202.704 20.7617L203.091 20.252L204.005 20.9727C203.917 21.1133 203.776 21.3066 203.583 21.5527C203.39 21.7988 202.968 22.2207 202.3 22.8535C201.632 23.4688 200.929 24.0137 200.19 24.4883C199.452 24.9805 198.468 25.4023 197.273 25.7891C196.077 26.1758 194.829 26.3516 193.564 26.3516C190.136 26.3516 187.183 25.0859 184.704 22.5547C182.208 20.0234 180.978 16.9824 180.978 13.3965ZM207.988 26L207.988 0.792969L209.06 0.792969L209.06 12.6758L225.267 12.6758L225.267 0.792969L226.34 0.792969L226.34 26L225.267 26L225.267 13.7656L209.06 13.7656L209.06 26H207.988Z" fill="black"/>
</svg>
